<mxfile host="65bd71144e">
    <diagram id="-bnEGb7wn6rzSsQRFJ0R" name="Page-1">
        <mxGraphModel dx="442" dy="252" grid="1" gridSize="10" guides="1" tooltips="1" connect="1" arrows="1" fold="1" page="1" pageScale="1" pageWidth="850" pageHeight="1100" math="0" shadow="0">
            <root>
                <mxCell id="0"/>
                <mxCell id="1" parent="0"/>
                <mxCell id="24" value="" style="whiteSpace=wrap;html=1;aspect=fixed;strokeWidth=15;rounded=1;fillOpacity=0;arcSize=12;" vertex="1" parent="1">
                    <mxGeometry x="380" y="280" width="160" height="160" as="geometry"/>
                </mxCell>
                <mxCell id="25" value="" style="shape=flexArrow;endArrow=classic;html=1;strokeWidth=15;width=15;fillOpacity=0;" edge="1" parent="1">
                    <mxGeometry width="50" height="50" relative="1" as="geometry">
                        <mxPoint x="440" y="380" as="sourcePoint"/>
                        <mxPoint x="520" y="300" as="targetPoint"/>
                    </mxGeometry>
                </mxCell>
            </root>
        </mxGraphModel>
    </diagram>
</mxfile>